<svg version="1.1" id="Layer_1" xmlns="http://www.w3.org/2000/svg" xmlns:xlink="http://www.w3.org/1999/xlink" x="0px" y="0px" viewBox="0 0 595.28 595.28" enable-background="new 0 0 595.28 595.28" xml:space="preserve" width="595.28"  height="595.28" >
<path id="color_x5F_10" fill="#1178B5" d="M191.339,448.32c0.23,0.535,0.56,1.014,0.966,1.416l-15.423,6.55
	c0.002-0.061,0.009-0.12,0.009-0.181c0-1.395-0.458-2.678-1.222-3.716l15.356-6.521c0,0,0,0,0,0
	c-0.014,0.098-0.027,0.197-0.035,0.297c-0.011,0.12-0.019,0.242-0.019,0.365c0,0.156,0.008,0.31,0.024,0.462
	c0.004,0.035,0.011,0.068,0.015,0.102c0.015,0.117,0.03,0.234,0.053,0.349c0.006,0.028,0.015,0.055,0.021,0.083
	c0.027,0.119,0.055,0.237,0.091,0.352c0.005,0.017,0.013,0.034,0.019,0.051c0.04,0.125,0.084,0.247,0.135,0.367
	C191.332,448.306,191.336,448.313,191.339,448.32z M165.299,353.213h-14.685c-0.272,0.259-0.618,0.509-1.045,0.735
	c-1.47,0.778-4.902,2.747-5.83,2.507s-1.12-2.17-1.395-2.73c-0.154-0.314-0.826-0.378-1.566-0.47
	c-1.072,0.195-1.887,1.14-1.887,2.283v2.966c0,1.284,1.028,2.324,2.295,2.324h24.112c1.267,0,2.295-1.041,2.295-2.324v-2.966
	C167.594,354.253,166.567,353.213,165.299,353.213z M199.409,444.629c0,0.001,0,0.001,0.001,0.002
	c0.061,0.132,0.115,0.269,0.164,0.408c0.012,0.035,0.023,0.071,0.034,0.107c0.034,0.107,0.065,0.215,0.091,0.325
	c0.011,0.045,0.021,0.091,0.031,0.137c0.022,0.107,0.04,0.216,0.054,0.326c0.006,0.045,0.013,0.088,0.018,0.133
	c0.016,0.153,0.026,0.307,0.026,0.465c0,0.181-0.014,0.359-0.034,0.534c-0.006,0.05-0.015,0.098-0.022,0.147
	c-0.02,0.131-0.044,0.259-0.075,0.386c-0.011,0.046-0.022,0.092-0.035,0.138c-0.04,0.147-0.088,0.291-0.142,0.431
	c-0.007,0.018-0.012,0.036-0.019,0.054c-0.068,0.169-0.145,0.332-0.232,0.489c0,0,0,0,0,0l70.928,8.761
	c-0.097-0.44-0.153-0.896-0.153-1.366c0-0.96,0.221-1.866,0.604-2.678L199.409,444.629z M381.94,463.083h51.49
	c0.31,0,0.618-0.008,0.924-0.024l-52.461,0.018C381.92,463.08,381.94,463.083,381.94,463.083z M433.43,213.224H321.525
	c-9.813,0-17.767,7.955-17.767,17.767v201.372c1.43-0.465,2.693,2.509,2.693,2.509s1.293-2.541,3.179-5.204V241.41
	c0-9.813,7.955-17.767,17.767-17.767h22.755l3.523,7.928h46.081l4.651-7.928h23.151c9.813,0,17.768,7.955,17.768,17.767v184.166
	c1.991-0.568,3.968-0.573,5.783,0.342c0,0,0.034,0.024,0.089,0.072V230.991C451.197,221.178,443.243,213.224,433.43,213.224z
	 M356.581,453.601c-0.013,1.274-0.254,2.52-0.254,2.52s1.091-1.766,3.325-1.351c2.234,0.416,2.234,4.208,2.234,4.208
	s0.416-1.091,2.338-0.987c0.292,0.016,0.566,0.075,0.83,0.16c-0.381-0.787-0.91-2.118-0.441-2.665c0.686-0.8,2.401-0.343,3.163,0
	c0,0-0.87-0.951-1.28-1.885H356.581z M451.197,438.467v-5.424c-1.641,4.143-3.29,7.022-3.29,7.022S449.969,437.887,451.197,438.467z
	"></path>
<path id="color_x5F_9" fill="#F36E3B" d="M369.417,177.141c0,0,0.543,1.746,2.004,2.581c1.709,0.977,6.407,1.772,5.388,6.931
	c-1.027-1.352-3.053-3.756-5.262-4.948c0,0,3.544,3.08,5.034,5.483c-0.569,0.347-2.974,1.562-5.952-0.515
	C367.038,184.168,369.417,177.141,369.417,177.141z M379.338,188.843c2.645-1.9,5.358-1.46,5.358-1.46
	c-2.786,0.214-4.457,1.352-5.38,2.29c0.559,0.213,2.605,0.871,5.443,0.34c4.782-0.895,4.669-6.944,4.669-6.944
	c-1.559,1.976-4.063,0.139-6.958,1.531C380.522,185.536,379.668,187.688,379.338,188.843z M377.687,181.584l0.247-8.73l0.285,8.783
	c1.044-0.259,4.304-1.423,4.724-5.903c0.501-5.344-5.302-9.477-5.302-9.477s1.043,2.051-1.211,4.759
	C373.688,174.313,374.17,179.533,377.687,181.584z M390.494,377.217c-0.719,0-1.29,0.27-1.713,0.809
	c-0.423,0.539-0.635,1.254-0.635,2.142c0,0.901,0.212,1.614,0.635,2.139c0.423,0.525,0.977,0.787,1.663,0.787
	c0.706,0,1.267-0.254,1.682-0.765c0.415-0.51,0.622-1.217,0.622-2.122c0-0.944-0.201-1.678-0.603-2.202
	C391.742,377.479,391.192,377.217,390.494,377.217z M420.834,379.971c0,4.907-3.978,8.884-8.884,8.884h-68.943
	c-4.907,0-8.884-3.978-8.884-8.884c0-4.907,3.978-8.884,8.884-8.884h68.943C416.856,371.087,420.834,375.064,420.834,379.971z
	 M351.552,375.789c-0.609-0.225-1.358-0.337-2.247-0.337c-1.434,0-2.601,0.453-3.5,1.358c-0.899,0.905-1.349,2.086-1.349,3.541
	c0,1.367,0.4,2.46,1.199,3.281c0.8,0.821,1.898,1.232,3.294,1.232c1.07,0,1.938-0.161,2.602-0.483v-1.872
	c-0.664,0.39-1.396,0.584-2.196,0.584c-0.837,0-1.504-0.261-1.999-0.784c-0.495-0.522-0.743-1.224-0.743-2.104
	c0-0.918,0.262-1.646,0.787-2.183c0.525-0.538,1.214-0.806,2.069-0.806c0.779,0,1.472,0.182,2.082,0.546V375.789z M361.015,375.605
	h-2.056v3.63h-3.77v-3.63h-2.05v9.101h2.05V381h3.77v3.706h2.056V375.605z M368.554,383.043h-3.408v-2.082h2.977v-1.663h-2.977
	v-2.024h3.199v-1.669h-5.249v9.101h5.458V383.043z M376.538,375.789c-0.609-0.225-1.358-0.337-2.247-0.337
	c-1.434,0-2.601,0.453-3.5,1.358c-0.899,0.905-1.349,2.086-1.349,3.541c0,1.367,0.4,2.46,1.199,3.281
	c0.8,0.821,1.898,1.232,3.294,1.232c1.07,0,1.938-0.161,2.602-0.483v-1.872c-0.664,0.39-1.396,0.584-2.196,0.584
	c-0.837,0-1.504-0.261-1.999-0.784c-0.495-0.522-0.743-1.224-0.743-2.104c0-0.918,0.262-1.646,0.787-2.183
	c0.525-0.538,1.214-0.806,2.069-0.806c0.779,0,1.472,0.182,2.082,0.546V375.789z M385.69,384.706l-3.446-4.76l3.173-4.341h-2.443
	l-2.513,3.796c-0.118,0.22-0.203,0.389-0.254,0.508h-0.032v-4.303h-2.05v9.101h2.05v-4.455h0.032
	c0.11,0.258,0.191,0.425,0.242,0.501l2.653,3.954H385.69z M394.905,380.092c0-1.392-0.401-2.513-1.203-3.364
	c-0.802-0.85-1.852-1.276-3.151-1.276c-1.375,0-2.479,0.444-3.313,1.333s-1.251,2.052-1.251,3.49c0,1.363,0.41,2.468,1.232,3.316
	c0.821,0.848,1.883,1.272,3.185,1.272c1.337,0,2.421-0.438,3.252-1.314C394.489,382.675,394.905,381.522,394.905,380.092z
	 M403.834,375.605h-2.05v5.357c0,1.422-0.565,2.132-1.694,2.132c-1.151,0-1.726-0.736-1.726-2.208v-5.28h-2.057v5.255
	c0,2.67,1.235,4.005,3.707,4.005c2.547,0,3.82-1.367,3.82-4.1V375.605z M412.205,375.605h-7.235v1.669h2.583v7.431h2.056v-7.431
	h2.595V375.605z M351.293,351.656l-12.677-45.096h16.417c0-12.396,10.049-22.444,22.444-22.444
	c12.395,0,22.444,10.049,22.444,22.444h16.417l-14.547,45.096H351.293z M358.584,306.56h37.787c0-10.435-8.459-18.894-18.894-18.894
	S358.584,296.125,358.584,306.56z"></path>
<path id="color_x5F_8" fill="#A4BFCE" d="M507.883,461.126c0,0-0.61-2.21-3.125-1.6c-2.515,0.61-4.496,1.905-8.611,0.762
	c-4.115-1.143-10.136-1.829-10.136-1.829s2.286-2.286,1.372-3.582s-4.649,0.305-4.649,0.305s1.372-1.6-0.686-3.048
	c-2.058-1.448-6.706,4.039-6.935,4.039c-0.229,0,0.914-2.591-1.143-3.81c-2.058-1.219-4.039,0.762-4.039,0.762s2.058-4.344,0-4.344
	c-2.058,0-4.039,2.972-4.039,2.972s0.533-3.81-0.991-4.649c-1.524-0.838-3.963,1.905-3.963,1.905s1.6-3.201,0-4.344
	c-1.6-1.143-5.106,0.152-5.106,0.152s1.296-3.582,0-4.268s-3.592,1.067-3.592,1.067s0.239-2.439-0.981-3.125
	c-1.219-0.686-3.353,1.573-3.353,1.573s1.905-3.325,3.658-7.974c1.753-4.649-0.457-6.173-0.457-6.173
	c-8.611-4.344-20.881,11.888-20.881,11.888s0.076-3.277-0.61-3.658c-0.686-0.381-1.448,0.152-1.448,0.152s0.914-2.972-0.914-3.125
	c-1.829-0.152-3.658,3.277-3.658,3.277s2.743-6.859,0-7.621c-2.743-0.762-5.868,5.487-5.868,5.487c0-2.515-1.829-4.953-2.972-4.725
	c-1.143,0.229-2.21,2.667-2.21,2.667s-2.21-5.258-3.734-5.258c-1.524,0-2.362,2.515-2.362,2.515s-7.392-12.193-12.346-10.669
	c-4.953,1.524-1.448,10.288-1.448,10.288s-0.86-0.767-1.913-1.356c-0.209-1.697-0.866-4.215-2.86-6.158
	c-0.502-0.489-1.03-0.979-1.562-1.471c-1.106-1.025-2.228-2.066-3.144-3.141c0.064-0.353,0.38-1.11,1.864-1.646
	c0.901-0.325,2.072-0.172,3.429,0.005c2.125,0.277,4.77,0.623,7.277-1.014c3.46-2.26,2.933-6.259,2.171-8.057l-1.684,0.714
	c0.062,0.146,1.398,3.4-1.002,5.447c-0.19-0.716-0.571-1.526-1.335-2.11c-0.678-0.519-0.447-1.232-0.394-1.369l-0.848-0.343
	l-0.843-0.355c-0.306,0.726-0.496,2.396,0.973,3.52c0.539,0.412,0.717,1.121,0.774,1.611c-1.59,0.568-3.243,0.354-4.854,0.144
	c-1.526-0.2-2.969-0.388-4.287,0.088c-1.258,0.454-2.006,1.081-2.449,1.696c-0.479-0.824-0.786-1.672-0.823-2.55
	c-0.049-1.19,0.091-2.108,0.227-2.996c0.264-1.725,0.514-3.356-0.863-6c-2.091-4.015-8.977-5.23-9.269-5.28l-0.308,1.803
	c0.063,0.011,6.283,1.113,7.954,4.322c1.101,2.114,0.923,3.273,0.678,4.878c-0.098,0.638-0.2,1.343-0.238,2.159
	c-0.914-0.194-2.434-0.482-4.76-0.829c-0.217-2.984-1.729-4.074-1.909-4.193l-1.025,1.514c0.039,0.028,0.839,0.637,1.071,2.4
	c-4.293-0.719-4.657-3.142-4.67-3.248l-1.82,0.18c0.015,0.166,0.441,4.086,6.576,4.938c3.678,0.511,5.697,0.919,6.598,1.124
	c0.468,3.09,3.118,5.549,5.688,7.931c0.52,0.482,1.037,0.961,1.529,1.44c1.292,1.259,1.891,2.869,2.167,4.185
	c-0.244-0.007-0.477,0.027-0.691,0.114c-1.677,0.686-1.372,2.82-1.372,2.82s-2.591-2.21-3.429-1.448s0.457,3.887,0.457,3.887
	s-6.782-9.602-10.822-11.279c-4.039-1.677-7.621,0-7.621,0c-1.6,0.305-2.658,2.286-2.658,2.286
	c-6.239,14.022,8.526,26.482,8.526,26.482s-1.638-0.762-2.553,0.457c-0.914,1.219,1.981,3.772,1.981,3.772s-3.277-0.953-4.115,0
	c-0.838,0.953,1.296,3.277,1.296,3.277c-0.762-0.343-2.477-0.8-3.163,0c-0.686,0.8,0.762,3.277,0.762,3.277
	c-1.524-0.991-2.591,0-2.591,0c-0.686,1.524,1.228,4.32,1.228,4.32l153.931-0.052L507.883,461.126z"></path>
<path id="color_x5F_7" fill="#788F9C" d="M387.792,196.191l-4.676,17.033h-11.021l-4.342-17.033h9.392l0.037-7.681
	c-0.543-2.38-5.636-6.805-5.636-6.805c3.173,1.712,5.97,5.928,5.97,5.928l0.418-14.778l0.543,16.699
	c2.881-2.714,6.22-2.171,6.22-2.171c-4.884,0.376-6.345,3.59-6.345,3.59v5.218H387.792z M362.784,458.763c0,0,1.067-0.991,2.591,0
	c0,0-0.145-0.248-0.321-0.612c-0.264-0.085-0.538-0.144-0.83-0.16c-1.922-0.104-2.338,0.987-2.338,0.987s0-3.793-2.234-4.208
	c-2.234-0.416-3.325,1.351-3.325,1.351s0.883-4.52-0.623-5.143c-1.507-0.623-3.065,2.078-3.065,2.078s0.468-5.299-2.026-5.819
	c-2.494-0.52-4.156,5.819-4.156,5.819s0.468-4.78-2.182-5.092c-2.65-0.312-3.845,3.169-3.845,3.169s0.779-4.364-0.779-4.936
	c-1.559-0.572-5.195,2.598-5.195,2.598s1.818-4.364-0.364-5.04c-2.182-0.675-4.572,3.585-4.572,3.585s1.611-5.351-0.416-6.234
	s-2.806,0-2.806,0s1.455-3.481-0.312-3.637c-1.767-0.156-4.271,2.806-4.271,2.806s1.154-3.221-0.612-3.533
	c-1.766-0.312-3.117,1.766-3.117,1.766s4.988-13.404-0.104-14.755c-5.092-1.351-11.43,11.118-11.43,11.118s-1.299-3.065-2.753-2.494
	c-1.455,0.572-2.39,7.533-2.39,7.533s-1.143-2.857-2.598-2.234c-1.455,0.623-1.195,4.936-1.195,4.936s-1.507-2.702-2.961-1.922
	c-1.455,0.779,0.26,4.156,0.26,4.156s-2.39-1.611-3.689-0.883c-1.299,0.727,1.299,5.611,1.299,5.611s-1.766-1.714-2.338,0.156
	c-0.571,1.87,0.727,4.312,0.727,4.312s-2.494-1.974-3.585-1.247c-1.091,0.727-0.364,2.857-0.364,2.857s-2.546-2.234-4.26-1.611
	s-0.26,4.26-0.26,4.26s-1.507-2.857-2.806-2.026c-1.299,0.831-0.623,3.117-0.623,3.117s-0.935-1.714-2.65-1.195
	c-1.714,0.52-2.078,4.884-2.078,4.884h89.824C364.011,463.083,362.098,460.287,362.784,458.763z M364.011,463.083h17.929
	c0,0-0.021-0.003-0.047-0.006L364.011,463.083z"></path>
<path id="color_x5F_6" fill="#FFFFFF" d="M122.665,271.734l1.818,1.163l-2.512,4.078c-0.021,0.008-0.041,0.013-0.062,0.025
	c-0.633,0.363-1.667,2.208-1.791,2.683c-0.124,0.475-2.446,3.665-2.446,3.665s-0.174-0.294-0.051-0.896
	c0.123-0.602,0.574-1.467,0.229-2.052c-0.069-0.117-0.169-0.253-0.282-0.392L122.665,271.734z M170.738,449.876
	c-3.398,0-6.153,2.79-6.153,6.231c0,3.441,2.755,6.231,6.153,6.231c3.398,0,6.153-2.79,6.153-6.231
	C176.891,452.665,174.136,449.876,170.738,449.876z M199.828,446.531c0,2.477-1.983,4.485-4.429,4.485
	c-2.446,0-4.429-2.008-4.429-4.485c0-1.265,0.519-2.406,1.352-3.221l-4.856-13.888c-0.076-0.169-0.147-0.341-0.209-0.519
	l-21.022-60.286c0-0.001,0-0.002-0.001-0.002l-2.804-7.787h1.869c0.85,0,1.591-0.47,1.988-1.166l0.784,2.178
	c1.141-0.965,2.606-1.483,4.129-1.429l24.455,0.931c0.009-0.003,0.018-0.007,0.027-0.01c0.479-0.157,0.973-0.12,1.402,0.065
	l74.267,2.829c3.283,0.125,5.854,2.829,5.854,6.156v46.743c0,3.111-2.3,5.74-5.35,6.115l-79.129,9.729
	c-0.249,0.031-0.497,0.045-0.742,0.046l3.183,9.105C198.247,442.488,199.828,444.32,199.828,446.531z M241.449,423.001
	l-7.007-22.253h-23.076l7.966,24.972L241.449,423.001z M267.376,419.814l-6.013-19.065H238.66l6.849,21.753L267.376,419.814z
	 M274.187,400.749h-8.607l5.856,18.566l0.935-0.115c1.035-0.127,1.816-1.02,1.816-2.076V400.749z M255.138,367.64l9.159,29.04h9.89
	v-26.3c0-1.129-0.873-2.048-1.987-2.09L255.138,367.64z M227.908,366.603l9.47,30.077h22.7l-9.211-29.202L227.908,366.603z
	 M200.137,365.545l9.931,31.135h23.093l-9.521-30.24L200.137,365.545z M180.282,396.68h25.564l-9.983-31.298l-23.814-0.907
	c-0.688-0.028-1.329,0.283-1.741,0.85c-0.412,0.567-0.515,1.273-0.284,1.936L180.282,396.68z M193.242,428.928l22.027-2.708
	l-8.125-25.471h-25.441l9.469,27.083C191.569,428.591,192.382,429.035,193.242,428.928z M377.478,287.666
	c-10.435,0-18.894,8.459-18.894,18.894h37.787C396.371,296.125,387.912,287.666,377.478,287.666z M282.109,454.397
	c-0.734-2.609-3.101-4.521-5.913-4.521c-3.398,0-6.153,2.79-6.153,6.231c0,2.781,1.8,5.134,4.283,5.936
	c0.224-1.325,0.764-3.487,1.939-3.843c1.715-0.52,2.65,1.195,2.65,1.195s-0.675-2.286,0.623-3.117
	c0.978-0.626,2.073,0.838,2.555,1.601c0.017-0.057,0.029-0.116,0.044-0.174C281.863,456.819,281.482,455.183,282.109,454.397z
	 M401.784,380.961c0,1.422-0.565,2.132-1.694,2.132c-1.151,0-1.726-0.736-1.726-2.208v-5.28h-2.057v5.255
	c0,2.67,1.235,4.005,3.707,4.005c2.547,0,3.82-1.367,3.82-4.1v-5.16h-2.05V380.961z M393.702,376.728
	c0.802,0.851,1.203,1.972,1.203,3.364c0,1.43-0.416,2.583-1.248,3.459c-0.831,0.875-1.915,1.314-3.252,1.314
	c-1.303,0-2.365-0.424-3.185-1.272c-0.821-0.849-1.232-1.954-1.232-3.316c0-1.438,0.417-2.602,1.251-3.49s1.937-1.333,3.313-1.333
	C391.85,375.453,392.9,375.878,393.702,376.728z M392.747,380.206c0-0.944-0.201-1.678-0.603-2.202
	c-0.402-0.525-0.952-0.787-1.65-0.787c-0.719,0-1.29,0.27-1.713,0.809c-0.423,0.539-0.635,1.254-0.635,2.142
	c0,0.901,0.212,1.614,0.635,2.139c0.423,0.525,0.977,0.787,1.663,0.787c0.706,0,1.267-0.254,1.682-0.765
	C392.539,381.819,392.747,381.112,392.747,380.206z M445.326,241.41v184.166c-7.455,2.126-15.098,12.23-15.098,12.23
	s0.076-3.277-0.61-3.658s-1.448,0.152-1.448,0.152s0.914-2.972-0.914-3.125c-1.829-0.152-3.658,3.277-3.658,3.277
	s2.744-6.859,0-7.621c-2.743-0.762-5.868,5.487-5.868,5.487c0-2.515-1.829-4.953-2.972-4.725c-1.143,0.229-2.21,2.667-2.21,2.667
	s-2.21-5.258-3.734-5.258s-2.362,2.515-2.362,2.515s-7.392-12.193-12.346-10.669c-4.954,1.524-1.448,10.288-1.448,10.288
	s-0.86-0.767-1.913-1.356c-0.209-1.697-0.866-4.215-2.86-6.158c-0.502-0.489-1.03-0.979-1.562-1.471
	c-1.106-1.025-2.228-2.066-3.144-3.141c0.064-0.353,0.379-1.11,1.864-1.646c0.901-0.325,2.072-0.172,3.429,0.005
	c2.125,0.277,4.77,0.623,7.277-1.014c3.46-2.26,2.933-6.259,2.171-8.057l-1.684,0.714c0.062,0.146,1.398,3.4-1.002,5.447
	c-0.19-0.717-0.571-1.526-1.335-2.11c-0.678-0.519-0.447-1.232-0.394-1.369l-0.848-0.343l-0.843-0.355
	c-0.306,0.726-0.496,2.396,0.973,3.52c0.539,0.413,0.717,1.121,0.774,1.611c-1.59,0.568-3.243,0.354-4.854,0.144
	c-1.526-0.2-2.969-0.388-4.287,0.088c-1.258,0.454-2.006,1.081-2.449,1.696c-0.479-0.824-0.786-1.672-0.823-2.55
	c-0.049-1.19,0.091-2.108,0.227-2.996c0.264-1.725,0.514-3.356-0.863-6c-2.091-4.015-8.977-5.23-9.269-5.28l-0.308,1.803
	c0.062,0.011,6.283,1.113,7.954,4.322c1.101,2.114,0.923,3.273,0.677,4.878c-0.098,0.638-0.2,1.343-0.238,2.159
	c-0.914-0.194-2.434-0.482-4.76-0.829c-0.217-2.984-1.729-4.074-1.909-4.193l-1.025,1.514c0.039,0.028,0.839,0.637,1.071,2.4
	c-4.293-0.719-4.657-3.142-4.67-3.248l-1.82,0.18c0.015,0.166,0.441,4.086,6.577,4.938c3.678,0.511,5.697,0.919,6.598,1.124
	c0.469,3.09,3.118,5.549,5.688,7.931c0.52,0.482,1.037,0.961,1.529,1.44c1.292,1.259,1.891,2.869,2.167,4.185
	c-0.244-0.007-0.477,0.027-0.691,0.114c-1.677,0.686-1.372,2.82-1.372,2.82s-2.591-2.21-3.429-1.448
	c-0.838,0.762,0.457,3.887,0.457,3.887s-6.782-9.602-10.821-11.279c-4.039-1.677-7.621,0-7.621,0
	c-1.6,0.305-2.658,2.286-2.658,2.286c-6.239,14.022,8.526,26.482,8.526,26.482s-1.638-0.762-2.553,0.457
	c-0.914,1.219,1.981,3.772,1.981,3.772s-3.277-0.953-4.115,0c-0.302,0.343-0.216,0.865,0.015,1.392h-9.914
	c0.012-1.152-0.162-2.327-0.878-2.623c-1.507-0.623-3.065,2.078-3.065,2.078s0.468-5.299-2.026-5.819
	c-2.494-0.52-4.156,5.819-4.156,5.819s0.468-4.78-2.182-5.092c-2.65-0.312-3.845,3.169-3.845,3.169s0.779-4.364-0.779-4.936
	c-1.559-0.572-5.195,2.598-5.195,2.598s1.818-4.364-0.364-5.04c-2.182-0.675-4.572,3.585-4.572,3.585s1.611-5.351-0.416-6.234
	s-2.806,0-2.806,0s1.455-3.481-0.312-3.637c-1.767-0.156-4.271,2.806-4.271,2.806s1.154-3.221-0.612-3.533
	c-1.766-0.312-3.117,1.766-3.117,1.766s4.988-13.404-0.104-14.755c-2.793-0.741-5.96,2.677-8.251,5.914V241.41
	c0-9.813,7.955-17.767,17.767-17.767h22.755l3.523,7.928h46.081l4.651-7.928h23.151C437.371,223.643,445.326,231.597,445.326,241.41
	z M338.616,306.56l12.677,45.096h50.499l14.547-45.096h-16.417c0-12.396-10.049-22.444-22.444-22.444
	c-12.396,0-22.444,10.049-22.444,22.444H338.616z M420.834,379.971c0-4.907-3.978-8.884-8.884-8.884h-68.943
	c-4.907,0-8.884,3.978-8.884,8.884c0,4.907,3.978,8.884,8.884,8.884h68.943C416.856,388.855,420.834,384.877,420.834,379.971z
	 M404.97,377.274h2.583v7.431h2.056v-7.431h2.595v-1.669h-7.235V377.274z M385.417,375.605h-2.443l-2.513,3.796
	c-0.118,0.22-0.203,0.389-0.254,0.508h-0.032v-4.303h-2.05v9.101h2.05v-4.455h0.032c0.11,0.258,0.191,0.425,0.242,0.501l2.653,3.954
	h2.589l-3.446-4.76L385.417,375.605z M370.791,376.811c-0.899,0.905-1.349,2.086-1.349,3.541c0,1.367,0.4,2.46,1.199,3.281
	c0.8,0.821,1.898,1.232,3.294,1.232c1.07,0,1.938-0.161,2.602-0.483v-1.872c-0.664,0.39-1.396,0.584-2.196,0.584
	c-0.837,0-1.504-0.261-1.999-0.784c-0.495-0.522-0.743-1.224-0.743-2.104c0-0.918,0.262-1.646,0.787-2.183
	c0.525-0.538,1.214-0.806,2.069-0.806c0.779,0,1.472,0.182,2.082,0.546v-1.973c-0.609-0.225-1.358-0.337-2.247-0.337
	C372.857,375.453,371.69,375.906,370.791,376.811z M345.806,376.811c-0.899,0.905-1.349,2.086-1.349,3.541
	c0,1.367,0.4,2.46,1.199,3.281c0.8,0.821,1.898,1.232,3.294,1.232c1.07,0,1.938-0.161,2.602-0.483v-1.872
	c-0.664,0.39-1.396,0.584-2.196,0.584c-0.837,0-1.504-0.261-1.999-0.784c-0.495-0.522-0.743-1.224-0.743-2.104
	c0-0.918,0.262-1.646,0.787-2.183c0.525-0.538,1.214-0.806,2.069-0.806c0.779,0,1.472,0.182,2.082,0.546v-1.973
	c-0.609-0.225-1.358-0.337-2.247-0.337C347.871,375.453,346.705,375.906,345.806,376.811z M358.959,379.235h-3.77v-3.63h-2.05v9.101
	h2.05V381h3.77v3.706h2.056v-9.101h-2.056V379.235z M365.146,380.961h2.977v-1.663h-2.977v-2.024h3.199v-1.669h-5.249v9.101h5.458
	v-1.663h-3.408V380.961z"></path>
<path id="color_x5F_5" fill="#FFD2BB" d="M98.647,278.645c-0.045,0.4-0.422,4.978-2.178,5.867c-2.442,1.237-3.378,1.156-4.09,1.645
	c-0.47,0.323-0.454,2.833-0.39,4.503l-8.721-2.634c-0.061-1.116-0.201-3.007-0.504-4.677l0.001,0.002c0,0,4.79-4.034,4.496-5.141
	c-0.295-1.106-1.033-0.885-1.918-3.07c-0.885-2.185,0.221-3.347,1.696-2.904c1.475,0.442,1.141,1.844,1.141,1.844
	s6.899-0.148,8.669-1.991c1.512-1.575,1.703-2.75,1.727-3.061c0.011,0.094,0.026,0.184,0.036,0.28l0.053,0.641
	c0.062,0.945,0.065,1.953-0.018,3.051c0,0,1.206,3.558,1.245,4.223C99.919,277.695,98.692,278.245,98.647,278.645z M73.205,452.241
	h3.601l0.411-4.626h-4.321L73.205,452.241z M117.065,291.94l-0.023-0.016l1.251-1.874c0,0,1.803-1.205,2.458-1.807
	c0.655-0.602,3.014-3.946,2.716-4.905c-0.298-0.959-0.185-3.748-0.241-4.496c-0.056-0.747-0.685-2.206-1.318-1.843
	c-0.633,0.363-1.667,2.208-1.791,2.683c-0.124,0.475-2.446,3.665-2.446,3.665s-0.174-0.294-0.051-0.896
	c0.123-0.602,0.574-1.467,0.229-2.052c-0.345-0.585-1.373-1.626-1.759-1.428c-0.386,0.199,0.049,0.933-0.127,1.994
	c-0.176,1.061-1.142,2.394-1.59,3.806c-0.448,1.412,0.395,2.925,0.395,2.925l-2.084,3.123l-11.727,13.525l4.464,7.008
	L117.065,291.94z M150.916,351.38c-0.761-0.727-3.567-4.096-4.63-4.848c-0.903-0.639-3.658,0.296-5.137,0.531l-30.352-23.15
	l-4.676-7.486l-7.083,6.942l5.733,7.817l32.786,19.651c0.302,0.623,0.882,1.65,1.573,2.019c1.018,0.543,2.943,0.309,3.217,0.869
	c0.274,0.56,0.467,2.49,1.395,2.73s4.359-1.729,5.83-2.507C151.04,353.17,151.676,352.106,150.916,351.38z M97.765,443.515
	l3.19,1.026l1.77-4.189l-3.688-1.933L97.765,443.515z"></path>
<path id="color_x5F_4" fill="#00CEC9" d="M369.111,447.99c0.364-0.216,0.764-0.264,1.115-0.239
	C369.876,447.726,369.475,447.775,369.111,447.99z M370.477,447.781c0.177,0.029,0.33,0.07,0.448,0.108
	C370.807,447.851,370.653,447.81,370.477,447.781z M365.299,419.211c0,0,1.693-0.792,4.064-0.743
	C366.992,418.419,365.299,419.211,365.299,419.211c-0.9,0.171-1.629,0.873-2.094,1.455
	C363.67,420.085,364.399,419.383,365.299,419.211z M369.588,451.973c0.05,0.01,0.099,0.02,0.147,0.029
	C369.687,451.992,369.638,451.982,369.588,451.973z M370.212,452.109c-0.095-0.023-0.205-0.049-0.327-0.075
	C370.006,452.06,370.116,452.086,370.212,452.109z M370.595,452.209c0,0-0.554-0.489-1.101-1.141
	C370.041,451.721,370.595,452.209,370.595,452.209c0,0-0.089-0.026-0.24-0.064C370.506,452.184,370.595,452.209,370.595,452.209z
	 M366.985,451.906c-0.047,0.015-0.092,0.032-0.136,0.05C366.893,451.938,366.938,451.921,366.985,451.906z M368.719,451.836
	c0.143,0.016,0.284,0.036,0.421,0.057C369.003,451.872,368.862,451.853,368.719,451.836z M362.641,421.498
	c0,0,0.202-0.379,0.564-0.831C362.843,421.118,362.641,421.498,362.641,421.498c-6.239,14.022,8.525,26.482,8.526,26.482l0,0
	C371.167,447.98,356.402,435.52,362.641,421.498z M383.741,430.49c0,0-0.392-0.555-1.04-1.416
	C383.349,429.935,383.741,430.49,383.741,430.49s-0.035-0.085-0.09-0.229C383.706,430.405,383.741,430.49,383.741,430.49z
	 M370.673,418.583c-0.209-0.032-0.414-0.057-0.616-0.075C370.259,418.526,370.465,418.551,370.673,418.583z M381.973,428.119
	c-0.164-0.212-0.337-0.434-0.518-0.663C381.636,427.686,381.809,427.907,381.973,428.119z M367.977,451.786
	c-0.057-0.001-0.115,0-0.171,0.001C367.862,451.786,367.919,451.786,367.977,451.786z M383.57,430.041
	c-0.012-0.035-0.025-0.071-0.039-0.109C383.545,429.97,383.558,430.007,383.57,430.041z M372.92,419.211
	c-0.738-0.306-1.461-0.5-2.15-0.613C371.459,418.711,372.181,418.905,372.92,419.211c0.379,0.157,0.781,0.384,1.2,0.666
	C373.701,419.595,373.298,419.369,372.92,419.211z M378.562,424.004c0.997,1.109,1.943,2.254,2.747,3.268
	C380.504,426.257,379.559,425.113,378.562,424.004z M378.562,424.004c-1.467-1.632-3.045-3.186-4.442-4.126
	C375.517,420.818,377.094,422.371,378.562,424.004z M364.501,455.68c-0.02,0.051-0.037,0.105-0.048,0.162
	C364.464,455.785,364.481,455.731,364.501,455.68z M364.723,457.387c-0.024-0.064-0.048-0.129-0.07-0.195
	C364.675,457.257,364.699,457.322,364.723,457.387z M364.747,457.45c0.03,0.076,0.06,0.152,0.091,0.225
	C364.807,457.601,364.776,457.526,364.747,457.45z M364.936,457.899c-0.024-0.054-0.048-0.109-0.073-0.165
	C364.887,457.79,364.912,457.845,364.936,457.899z M364.613,455.486c-0.038,0.045-0.068,0.096-0.093,0.151
	C364.545,455.583,364.575,455.531,364.613,455.486c0.3-0.35,0.797-0.459,1.325-0.443
	C365.41,455.027,364.913,455.136,364.613,455.486z M364.444,456.347c0.009,0.077,0.022,0.155,0.038,0.235
	C364.467,456.502,364.453,456.423,364.444,456.347z M365.37,458.755c-0.001-0.002-0.001-0.002-0.002-0.004
	C365.368,458.752,365.369,458.754,365.37,458.755z M364.544,456.841c-0.018-0.068-0.035-0.135-0.049-0.202
	C364.51,456.706,364.526,456.773,364.544,456.841z M364.558,456.892c0.023,0.081,0.048,0.162,0.075,0.242
	C364.606,457.054,364.581,456.973,364.558,456.892z M366.394,455.085c0.093,0.014,0.184,0.031,0.275,0.05
	C366.579,455.116,366.487,455.099,366.394,455.085z M367.762,455.471c0.008,0.009,0.014,0.015,0.014,0.015c0,0,0,0,0,0
	S367.77,455.48,367.762,455.471z M383.101,426.876c0.044-0.108,0.104-0.201,0.182-0.272c0.079-0.071,0.173-0.117,0.278-0.14
	c-0.106,0.023-0.2,0.069-0.278,0.14C383.205,426.675,383.145,426.767,383.101,426.876z M365.328,458.68
	c0.01,0.017,0.018,0.033,0.025,0.044C365.346,458.713,365.337,458.697,365.328,458.68z M367.308,455.307
	c-0.036-0.012-0.072-0.023-0.109-0.035C367.235,455.283,367.272,455.295,367.308,455.307z M365.267,458.569
	c0.011,0.021,0.022,0.04,0.031,0.058C365.289,458.609,365.278,458.589,365.267,458.569z M364.43,456.119
	c0.001,0.062,0.004,0.125,0.011,0.191C364.434,456.245,364.431,456.181,364.43,456.119z M365.174,458.391
	c0.022,0.043,0.043,0.083,0.062,0.119C365.217,458.474,365.196,458.434,365.174,458.391z M365.141,458.326
	c-0.019-0.038-0.039-0.078-0.059-0.119C365.102,458.248,365.121,458.288,365.141,458.326z M314.133,424.787
	c-0.025,0.018-0.05,0.036-0.075,0.054C314.083,424.823,314.108,424.804,314.133,424.787z M313.867,424.983
	c-0.023,0.017-0.046,0.035-0.069,0.053C313.821,425.018,313.844,425,313.867,424.983z M313.541,425.241
	c0.019-0.016,0.039-0.032,0.058-0.047C313.58,425.209,313.56,425.225,313.541,425.241z M430.035,435.02
	c0.012,0.054,0.022,0.111,0.033,0.168C430.057,435.13,430.046,435.074,430.035,435.02z M314.661,424.438
	c-0.023,0.014-0.046,0.029-0.07,0.044C314.614,424.467,314.637,424.452,314.661,424.438z M314.322,424.656
	c0.025-0.017,0.05-0.034,0.075-0.051C314.372,424.622,314.347,424.639,314.322,424.656z M428.871,434.027
	c0.231-0.035,0.494-0.02,0.747,0.121c0.129,0.071,0.23,0.245,0.311,0.479c-0.081-0.234-0.182-0.408-0.311-0.479
	C429.365,434.008,429.103,433.992,428.871,434.027z M313.043,425.672c-0.004,0.003-0.007,0.007-0.011,0.01
	C313.036,425.678,313.04,425.675,313.043,425.672z M313.285,425.457c0.014-0.012,0.028-0.024,0.041-0.035
	C313.313,425.433,313.299,425.445,313.285,425.457z M317.012,423.655c0.036-0.001,0.072-0.002,0.108-0.002
	C317.084,423.652,317.048,423.654,317.012,423.655z M316.079,423.8c-0.036,0.01-0.073,0.02-0.109,0.031
	C316.007,423.82,316.043,423.81,316.079,423.8z M315.45,424.025c0.027-0.012,0.055-0.022,0.082-0.034
	C315.505,424.003,315.478,424.013,315.45,424.025z M315.19,424.146c0.005-0.002,0.01-0.005,0.015-0.007
	C315.2,424.141,315.195,424.143,315.19,424.146z M315.811,423.885c-0.034,0.012-0.067,0.023-0.101,0.035
	C315.744,423.908,315.778,423.896,315.811,423.885z M316.751,423.67c0.037-0.004,0.074-0.007,0.111-0.01
	C316.825,423.663,316.788,423.667,316.751,423.67z M316.342,423.735c-0.037,0.008-0.074,0.016-0.112,0.025
	C316.268,423.751,316.305,423.743,316.342,423.735z M316.491,423.706c0.037-0.006,0.075-0.012,0.112-0.018
	C316.566,423.693,316.528,423.699,316.491,423.706z M396.843,417.155c-0.116-0.051-0.231-0.098-0.346-0.141
	C396.613,417.058,396.728,417.104,396.843,417.155z M388.776,425.118c-0.047-0.224-0.104-0.457-0.172-0.694
	C388.671,424.661,388.728,424.894,388.776,425.118c-0.061-0.002-0.121-0.001-0.181,0.003
	C388.654,425.117,388.714,425.116,388.776,425.118z M383.789,426.444c0.16,0.005,0.337,0.044,0.522,0.106
	C384.125,426.488,383.949,426.449,383.789,426.444z M390.08,423.045c0.28,0.745,0.46,1.468,0.572,2.113
	C390.539,424.512,390.36,423.789,390.08,423.045z M391.474,420.731c-0.001,0.02-0.003,0.039-0.004,0.059
	C391.471,420.77,391.473,420.751,391.474,420.731z M396.088,416.879c-0.687-0.195-1.354-0.223-1.982-0.03
	c-1.576,0.485-2.293,1.703-2.542,3.138c0.249-1.435,0.967-2.653,2.542-3.138C394.734,416.656,395.401,416.684,396.088,416.879z
	 M384.31,426.551c0.093,0.031,0.187,0.068,0.283,0.11C384.498,426.619,384.403,426.582,384.31,426.551z M388.085,425.232
	c-0.105,0.043-0.202,0.091-0.292,0.145C387.883,425.323,387.98,425.275,388.085,425.232c0.026-0.011,0.053-0.018,0.079-0.027
	C388.138,425.214,388.111,425.221,388.085,425.232z M387.652,425.475c-0.117,0.084-0.226,0.173-0.317,0.272
	C387.427,425.648,387.535,425.558,387.652,425.475z M423.598,426.832L423.598,426.832c-2.743-0.762-5.867,5.486-5.868,5.487
	c0,0,0,0,0,0C417.73,432.319,420.854,426.07,423.598,426.832z M428.204,434.278c-0.022,0.014-0.034,0.022-0.034,0.022l0,0
	C428.17,434.301,428.182,434.292,428.204,434.278z M425.795,431.711c-1.228,0.929-2.193,2.734-2.197,2.742c0,0,0,0.001,0,0.001
	S424.564,432.642,425.795,431.711z M428.204,434.278c0.033-0.021,0.09-0.054,0.164-0.09
	C428.294,434.224,428.238,434.258,428.204,434.278z M430.228,437.806L430.228,437.806c0,0,0.011-0.015,0.03-0.039
	C430.239,437.791,430.228,437.806,430.228,437.806z M408.813,425.003c-0.283,0-0.543,0.087-0.778,0.229
	C408.271,425.091,408.53,425.003,408.813,425.003c0.244,0,0.505,0.136,0.772,0.362C409.319,425.139,409.057,425.003,408.813,425.003
	z M413.493,428.625c-0.066,0.089-0.129,0.178-0.189,0.269C413.364,428.804,413.427,428.714,413.493,428.625z M413.168,429.104
	c-0.377,0.604-0.62,1.158-0.621,1.158l0,0C412.548,430.262,412.791,429.708,413.168,429.104z M416.609,428.84
	c-0.589-0.841-1.299-1.356-1.851-1.246c-0.286,0.057-0.567,0.252-0.828,0.513c0.261-0.261,0.542-0.456,0.828-0.513
	C415.309,427.484,416.02,427.999,416.609,428.84z M366.291,452.672c0.001-0.006,0.001-0.011,0.001-0.017
	C366.292,452.661,366.292,452.667,366.291,452.672z M392.032,408.974c0.059,0.095,0.124,0.188,0.198,0.28
	C392.157,409.162,392.091,409.069,392.032,408.974z M398.388,405.999c-0.026-0.166-0.056-0.327-0.09-0.482
	C398.333,405.672,398.363,405.833,398.388,405.999z M395.234,410.46C395.234,410.46,395.234,410.46,395.234,410.46
	c-0.047-0.179-0.107-0.364-0.181-0.55C395.127,410.095,395.186,410.28,395.234,410.46z M397.92,404.299
	c0.143,0.337,0.278,0.752,0.379,1.218C398.197,405.051,398.062,404.636,397.92,404.299L397.92,404.299z M396.658,407.023
	c-0.008-0.204-0.027-0.4-0.052-0.583C396.631,406.624,396.65,406.819,396.658,407.023z M392.619,411.662
	c0.032-0.006,0.064-0.012,0.095-0.018C392.683,411.65,392.651,411.656,392.619,411.662z M393.206,410.285
	c0.221,0.371,0.317,0.798,0.356,1.128C393.523,411.083,393.427,410.656,393.206,410.285z M396.308,405.205
	c0.085,0.241,0.221,0.684,0.297,1.235C396.53,405.889,396.393,405.445,396.308,405.205z M398.423,406.251
	c0.021,0.174,0.037,0.352,0.047,0.533C398.46,406.603,398.445,406.425,398.423,406.251z M393.899,408.349
	c-0.381-0.292-0.475-0.645-0.475-0.923C393.424,407.705,393.517,408.058,393.899,408.349c0.573,0.438,0.931,1.003,1.154,1.56
	C394.829,409.352,394.472,408.788,393.899,408.349z M384.539,413.575c0.151-0.073,0.318-0.143,0.504-0.21
	c0.338-0.122,0.714-0.176,1.123-0.188c-0.409,0.011-0.785,0.066-1.123,0.188C384.857,413.432,384.689,413.503,384.539,413.575z
	 M384.421,411.645c-1.258,0.454-2.006,1.081-2.449,1.696c-0.033-0.057-0.063-0.114-0.095-0.171c0.031,0.057,0.062,0.115,0.095,0.171
	C382.416,412.726,383.163,412.1,384.421,411.645c0.824-0.298,1.696-0.336,2.607-0.274
	C386.118,411.309,385.245,411.347,384.421,411.645z M381.376,407.794c-0.051,0.333-0.103,0.67-0.145,1.024
	C381.274,408.464,381.325,408.127,381.376,407.794c0.083-0.539,0.164-1.069,0.194-1.624
	C381.54,406.725,381.459,407.255,381.376,407.794z M389.314,411.634c-0.202-0.025-0.404-0.051-0.606-0.077
	c-0.572-0.075-1.133-0.148-1.68-0.186c0.547,0.037,1.107,0.111,1.68,0.186C388.91,411.583,389.111,411.61,389.314,411.634z
	 M392.166,406.43l0.491,0.207l0.848,0.343c-0.023,0.06-0.08,0.229-0.081,0.443c0.001-0.214,0.058-0.383,0.081-0.443l-0.848-0.343
	L392.166,406.43z M391.815,406.282c-0.223,0.529-0.381,1.56,0.117,2.516C391.433,407.843,391.592,406.812,391.815,406.282
	L391.815,406.282z M383.179,415.011c0.69,0.809,1.496,1.599,2.325,2.377C384.675,416.61,383.868,415.82,383.179,415.011
	c0.01-0.055,0.027-0.12,0.052-0.191C383.206,414.892,383.188,414.957,383.179,415.011z M98.032,270.548
	c-0.046,0.081-0.097,0.164-0.152,0.249C97.935,270.712,97.986,270.629,98.032,270.548z M97.402,271.461
	c-0.056,0.07-0.116,0.141-0.178,0.213C97.285,271.603,97.345,271.531,97.402,271.461z M455.505,463.052
	c-1.678,0.725-2.612,1.082-2.612,1.082H96.922c0,0-8.111-5.869-17.92-16.528l8.13-64.531h2.305l12.678,27.948l-4.221,26.795
	l1.143,0.599l-1.272,5.097l1.47,0.473l-2.907-0.927l-3.03,9.504l2.116,0.675l1.338-4.195c0,0,2.049,4.989,3.526,5.746
	c1.476,0.757,9.058,2.888,9.058,2.888s0.552-1.133-0.189-1.887c-0.741-0.754-3.277-1.181-5.53-2.581
	c-2.253-1.4-2.38-4.849-1.348-8.255l-1.311-0.418l1.768-4.185l-3.45-1.808l4.82,2.526l11.274-28.604l-14.983-53.304H70.229
	l1.151,79.511c-13.115-16.62-26.372-40.626-26.38-69.77c-0.01-36.269,5.014-68.773,30.653-92.864
	c0.602,1.191,1.394,2.184,2.39,2.763c3.17,1.843,4.722,4.547,4.724,4.55l0,0l-0.001-0.002c0.303,1.67,0.444,3.561,0.504,4.677
	l8.721,2.634c-0.064-1.67-0.08-4.18,0.39-4.503c0.711-0.489,1.647-0.408,4.09-1.645c1.756-0.889,2.133-5.467,2.178-5.867
	c0.044-0.4,1.272-0.951,1.245-1.422c-0.039-0.665-1.245-4.223-1.245-4.223c0.083-1.098,0.079-2.106,0.018-3.051l-0.053-0.641
	c-0.01-0.094-0.024-0.183-0.035-0.275c0.005-0.059,0.005-0.093,0.005-0.093l0.115,1.391c0,0,0.507-4.68-0.354-6.912
	c-0.344-0.89-0.862-1.782-1.542-2.607c15.526-8.629,35.565-15.488,61.377-20.203c83.393-15.231,113.282-109.026,235.714-108.829
	C526.845,131.994,550.997,246.406,551,337.701c0.002,61.673-47.248,98.638-76.167,115.486c-0.191-0.307-0.467-0.591-0.862-0.825
	c-2.058-1.219-4.039,0.762-4.039,0.762s2.058-4.344,0-4.344c-2.058,0-4.039,2.972-4.039,2.972s0.533-3.81-0.991-4.649
	s-3.963,1.905-3.963,1.905s1.6-3.201,0-4.344c-1.6-1.143-5.106,0.152-5.106,0.152s1.296-3.582,0-4.268s-3.592,1.067-3.592,1.067
	s0.239-2.439-0.981-3.125c-0.021-0.012-0.042-0.02-0.064-0.03v-5.419c0.123-0.311,0.246-0.628,0.368-0.952
	c1.538-4.078,0.026-5.751-0.368-6.101V230.991c0-9.813-7.955-17.767-17.767-17.767h-50.313l4.676-17.033h-9.441v-5.218
	c0,0,0.271-0.593,0.965-1.3c0.559,0.213,2.605,0.871,5.443,0.34c4.782-0.895,4.669-6.944,4.669-6.944
	c-1.559,1.976-4.063,0.139-6.958,1.531c-1.947,0.936-2.802,3.088-3.132,4.243c-0.289,0.208-0.578,0.443-0.862,0.711l-0.257-7.915
	c1.044-0.259,4.304-1.423,4.724-5.903c0.501-5.344-5.302-9.477-5.302-9.477s1.043,2.051-1.211,4.759
	c-2.743,3.295-2.261,8.515,1.256,10.567l0.247-8.73l-0.418,14.778c0,0-0.259-0.39-0.707-0.98c1.019-5.159-3.679-5.955-5.388-6.931
	c-1.461-0.835-2.004-2.581-2.004-2.581s-2.38,7.027,1.211,9.532c2.978,2.078,5.383,0.862,5.952,0.515
	c-1.07-1.727-3.202-3.803-4.316-4.835c1.422,1.316,4.503,4.335,4.918,6.156l-0.037,7.681h-9.392l4.342,17.033h-50.57
	c-9.813,0-17.767,7.955-17.767,17.767v201.368c-0.02,0.007-0.04,0.011-0.06,0.019c-1.455,0.572-2.39,7.533-2.39,7.533
	s-1.143-2.857-2.598-2.234c-1.455,0.623-1.195,4.936-1.195,4.936s-1.507-2.702-2.961-1.922c-1.455,0.779,0.26,4.156,0.26,4.156
	s-2.39-1.611-3.689-0.883c-1.299,0.727,1.299,5.611,1.299,5.611s-1.766-1.714-2.338,0.156c-0.571,1.87,0.727,4.312,0.727,4.312
	s-2.494-1.974-3.585-1.247c-1.091,0.727-0.364,2.857-0.364,2.857s-2.546-2.234-4.26-1.611c-0.21,0.076-0.372,0.198-0.495,0.353
	c-0.735-2.609-3.101-4.52-5.912-4.52c-2.451,0-4.567,1.452-5.556,3.552l-71.231-8.799c0,0,0,0.001,0,0.001
	c-0.603-1.298-1.802-2.256-3.242-2.512l-3.183-9.105c0.245,0,0.493-0.015,0.742-0.046l79.129-9.729
	c3.05-0.375,5.35-3.004,5.35-6.115V370.38c0-3.327-2.572-6.031-5.854-6.156l-74.267-2.829c-0.429-0.185-0.923-0.222-1.402-0.065
	c-0.009,0.003-0.018,0.007-0.027,0.01L172.2,360.41c-1.524-0.054-2.988,0.464-4.129,1.429l-0.784-2.178
	c0.194-0.341,0.307-0.736,0.307-1.159v-2.966c0-1.284-1.028-2.324-2.295-2.324h-14.676c0.666-0.632,0.832-1.317,0.293-1.833
	c-0.761-0.727-3.567-4.096-4.63-4.848c-0.903-0.639-3.658,0.296-5.137,0.531l-30.352-23.15l-4.676-7.486l-1.496,1.467l3.055-2.995
	l-12.261-19.249c-0.623-2.396-2.236-4.629-2.236-4.629l-10.844-3.275c0,0-1.869,1.035-3.875,2.828c0,0-6.541,9.067-5.409,23.832
	c0.538,7.011,0.177,13.287,0.42,17.655c0.413,7.438-3.837,27.1-3.837,27.1h30.67c0,0-4.299-19.984-4.161-27.559
	c0.071-3.927-0.676-6.43,0.52-9.663l1.685,2.104l0.687-0.673l5.733,7.817l32.786,19.651c0.302,0.623,0.882,1.65,1.573,2.019
	c0.51,0.272,1.249,0.349,1.893,0.429c-0.08-0.01-0.16-0.02-0.242-0.03c-1.072,0.195-1.887,1.14-1.887,2.282v2.966
	c0,1.284,1.028,2.324,2.295,2.324h22.243l2.804,7.787c0,0.001,0.001,0.002,0.001,0.002l21.022,60.286
	c0.062,0.178,0.133,0.35,0.209,0.519l4.856,13.888c-0.684,0.67-1.151,1.561-1.298,2.559v0l-15.35,6.519
	c-1.122-1.524-2.915-2.512-4.937-2.512c-3.398,0-6.153,2.79-6.153,6.231c0,3.441,2.755,6.231,6.153,6.231
	c3.339,0,6.055-2.694,6.148-6.052l15.419-6.548c0.798,0.79,1.889,1.279,3.094,1.279c1.664,0,3.113-0.931,3.869-2.305l70.928,8.761
	c0.479,2.164,2.066,3.904,4.13,4.57c-0.103,0.609-0.139,1.041-0.139,1.041h89.824h0l0,0h0.05h17.879h51.49
	c0.31,0,0.617-0.008,0.923-0.024L455.505,463.052z M100.957,304.345l4.464,7.008l11.644-19.413l-0.023-0.016l1.251-1.874
	c0,0,1.803-1.205,2.458-1.807c0.655-0.602,3.014-3.946,2.716-4.905c-0.298-0.959-0.185-3.748-0.241-4.496
	c-0.056-0.747-0.685-2.206-1.318-1.843c0.021-0.012,0.042-0.017,0.062-0.025l2.512-4.078l-1.818-1.163l-5.095,8.272
	c-0.452-0.559-1.17-1.193-1.479-1.034c-0.386,0.199,0.049,0.933-0.127,1.994c-0.176,1.061-1.142,2.394-1.59,3.806
	c-0.448,1.412,0.395,2.925,0.395,2.925l-2.084,3.123L100.957,304.345z M97.697,271.07c0.05-0.071,0.097-0.14,0.141-0.208
	C97.793,270.93,97.747,270.999,97.697,271.07z M97.632,271.16c-0.048,0.066-0.099,0.133-0.151,0.2
	C97.534,271.293,97.584,271.226,97.632,271.16z M97.142,271.771c-0.09,0.103-0.185,0.207-0.287,0.313
	C96.956,271.978,97.051,271.874,97.142,271.771z M88.181,274.081L88.181,274.081c0,0,0.072-0.309-0.002-0.682
	C88.253,273.772,88.181,274.081,88.181,274.081z M87.262,278.211c-0.258-0.968-0.855-0.92-1.593-2.356
	C86.407,277.291,87.004,277.243,87.262,278.211c0.009,0.035,0.013,0.073,0.013,0.113C87.275,278.284,87.271,278.246,87.262,278.211z
	 M362.932,460.978c0.404,1.12,1.079,2.105,1.079,2.105h0C364.011,463.083,363.337,462.097,362.932,460.978z M385.08,419.493
	c0.251,0.232,0.501,0.464,0.747,0.695C385.58,419.957,385.331,419.726,385.08,419.493c-0.724-0.671-1.452-1.348-2.137-2.043
	C383.628,418.146,384.356,418.823,385.08,419.493z M392.657,427.137L392.657,427.137c-0.001-0.001-0.337-0.3-0.845-0.668
	C392.321,426.837,392.657,427.137,392.657,427.137z M98.492,269.479c-0.011,0.041-0.024,0.083-0.038,0.128
	C98.469,269.562,98.481,269.519,98.492,269.479z M98.526,269.342c-0.007,0.03-0.014,0.06-0.022,0.094
	C98.512,269.403,98.519,269.372,98.526,269.342z M386.713,428.051L386.713,428.051c0,0-0.171-1.2,0.45-2.09
	C386.542,426.851,386.713,428.05,386.713,428.051z M98.288,270.045c-0.067,0.152-0.15,0.318-0.251,0.495
	C98.138,270.362,98.221,270.197,98.288,270.045z M381.582,405.835c0.002-0.119,0-0.24-0.004-0.363
	C381.583,405.594,381.584,405.715,381.582,405.835z M98.442,269.645c-0.017,0.05-0.035,0.103-0.055,0.158
	C98.407,269.748,98.426,269.696,98.442,269.645z M364.967,457.968c0.029,0.064,0.058,0.125,0.087,0.184c0,0.001,0,0.001,0.001,0.002
	C365.026,458.094,364.997,458.032,364.967,457.968z M98.293,270.034c0.03-0.069,0.057-0.135,0.082-0.199
	C98.35,269.899,98.323,269.965,98.293,270.034z M380.825,414.952c-0.078-0.113-0.152-0.227-0.225-0.342
	C380.673,414.725,380.747,414.839,380.825,414.952z M381.85,416.277c0.146,0.169,0.296,0.336,0.449,0.502
	C382.146,416.613,381.996,416.445,381.85,416.277z M386.608,420.933L386.608,420.933c0.485,0.472,0.872,0.994,1.181,1.53
	C387.48,421.927,387.093,421.405,386.608,420.933z M379.392,411.563C379.392,411.563,379.392,411.563,379.392,411.563
	c0.13,0.86,0.434,1.67,0.854,2.445C379.826,413.233,379.522,412.423,379.392,411.563z M388.197,423.276
	c-0.118-0.272-0.253-0.544-0.408-0.813C387.944,422.732,388.079,423.004,388.197,423.276z M377.811,411.239
	c0.194,0.036,0.372,0.071,0.537,0.103C378.183,411.31,378.005,411.276,377.811,411.239z M368.037,405.321L368.037,405.321
	c0.01,0.076,0.2,1.349,1.9,2.326C368.237,406.67,368.047,405.397,368.037,405.321z M377.071,411.104
	c0.045,0.008,0.089,0.016,0.133,0.024C377.16,411.12,377.116,411.112,377.071,411.104z M366.326,452.489
	c-0.001,0.004-0.003,0.007-0.004,0.011C366.323,452.497,366.325,452.493,366.326,452.489z M369.937,407.647
	c0.148,0.085,0.307,0.168,0.479,0.247C370.244,407.815,370.085,407.732,369.937,407.647z M378.991,409.606
	c0.121,0.025,0.234,0.048,0.339,0.07c0.001-0.014,0.002-0.026,0.003-0.04c-0.001,0.014-0.002,0.026-0.003,0.04
	C379.225,409.654,379.112,409.63,378.991,409.606z M364.43,456.065c0.002-0.071,0.007-0.139,0.018-0.204
	C364.437,455.926,364.432,455.995,364.43,456.065z M314.883,424.308c0.013-0.007,0.026-0.016,0.04-0.023
	C314.91,424.293,314.897,424.301,314.883,424.308z M387.317,419.081c-0.114-0.108-0.227-0.215-0.342-0.323
	C387.09,418.866,387.203,418.974,387.317,419.081z M392.824,413.481c0.059-0.01,0.118-0.021,0.177-0.032
	C392.942,413.461,392.883,413.472,392.824,413.481z M386.586,413.18c0.575,0.02,1.207,0.102,1.885,0.191
	c0.398,0.052,0.815,0.106,1.246,0.15c-0.431-0.043-0.847-0.098-1.246-0.15C387.793,413.282,387.161,413.199,386.586,413.18z
	 M391.525,413.601c-0.161,0.004-0.32,0.005-0.479,0.002C391.205,413.606,391.365,413.605,391.525,413.601z M366.377,452.365
	c0.006-0.011,0.011-0.022,0.017-0.032C366.388,452.343,366.382,452.354,366.377,452.365z M374.442,399.331
	c-0.378-0.148-0.749-0.279-1.099-0.392C373.694,399.052,374.064,399.183,374.442,399.331z M370.857,408.079
	c-0.155-0.059-0.303-0.121-0.441-0.185C370.554,407.958,370.703,408.019,370.857,408.079z M372.661,404.655
	C372.661,404.655,372.661,404.655,372.661,404.655l-0.607,0.897L372.661,404.655z M374.84,399.493
	c0.196,0.083,0.392,0.17,0.588,0.263C375.233,399.663,375.036,399.576,374.84,399.493z M375.876,399.978
	c0.099,0.051,0.197,0.104,0.295,0.158C376.073,400.082,375.975,400.029,375.876,399.978z M371.896,406.434
	c0.037,0.045,0.075,0.095,0.116,0.153C371.972,406.529,371.933,406.479,371.896,406.434z M373.344,398.939
	c-0.337-0.109-0.654-0.201-0.941-0.28C372.69,398.738,373.007,398.83,373.344,398.939z M372.707,408.569
	c-0.131-0.991-0.441-1.618-0.694-1.981C372.266,406.951,372.576,407.577,372.707,408.569c-0.154-0.026-0.302-0.054-0.446-0.084
	C372.405,408.514,372.553,408.543,372.707,408.569z M374.57,408.847c-0.216-2.96-1.704-4.056-1.903-4.189
	C372.866,404.792,374.355,405.887,374.57,408.847c1.018,0.152,1.881,0.292,2.607,0.419
	C376.451,409.14,375.588,408.999,374.57,408.847z M381.127,403.182c-0.154-0.432-0.355-0.892-0.614-1.388
	c-0.784-1.505-2.243-2.617-3.775-3.422c1.532,0.804,2.991,1.916,3.775,3.422C380.771,402.29,380.972,402.751,381.127,403.182z
	 M378.696,409.547c-0.111-0.022-0.227-0.045-0.35-0.068C378.469,409.502,378.585,409.525,378.696,409.547z M371.128,408.177
	c0.19,0.065,0.391,0.126,0.604,0.182C371.519,408.303,371.318,408.242,371.128,408.177z M371.228,396.612l0.017-0.097
	c0.137,0.023,1.723,0.303,3.584,1.007c-1.862-0.704-3.447-0.983-3.584-1.007L371.228,396.612z M379.637,407.057
	c-0.022,0.15-0.045,0.303-0.069,0.461c-0.062,0.407-0.125,0.845-0.173,1.318c0.048-0.473,0.111-0.911,0.173-1.318
	C379.593,407.36,379.616,407.207,379.637,407.057z M379.687,406.689c0.003-0.021,0.005-0.042,0.008-0.063
	C379.692,406.647,379.689,406.668,379.687,406.689z M374.828,397.521c0.621,0.235,1.272,0.516,1.91,0.852
	C376.1,398.038,375.449,397.756,374.828,397.521z M390.152,413.559c0.283,0.022,0.572,0.037,0.865,0.043
	C390.724,413.597,390.436,413.581,390.152,413.559z M275.648,458.597c0.009-0.01,0.018-0.02,0.028-0.029
	C275.666,458.577,275.657,458.587,275.648,458.597z M275.885,458.393c-0.015,0.011-0.03,0.02-0.045,0.032
	C275.855,458.414,275.87,458.404,275.885,458.393z M270.083,455.406c0.001-0.01,0.002-0.019,0.004-0.029
	C270.086,455.387,270.084,455.396,270.083,455.406z M270.078,456.731c0.007,0.064,0.015,0.128,0.023,0.191
	C270.093,456.858,270.084,456.795,270.078,456.731z M276.074,458.278c-0.018,0.009-0.035,0.019-0.053,0.029
	C276.039,458.297,276.057,458.287,276.074,458.278z M279.909,456.135c0.001,0,0.003,0,0.004,0
	C279.912,456.135,279.91,456.135,279.909,456.135z M279.703,456.194c0.014-0.006,0.027-0.011,0.041-0.016
	C279.731,456.183,279.717,456.188,279.703,456.194z M270.044,456.106c0,0.146,0.007,0.29,0.017,0.434
	C270.051,456.397,270.044,456.252,270.044,456.106z M270.053,455.76c0.001-0.02,0.003-0.04,0.005-0.061
	C270.057,455.72,270.055,455.74,270.053,455.76z M272.371,419.2c1.035-0.127,1.816-1.02,1.816-2.076v-16.375h-8.607l5.856,18.566
	L272.371,419.2z M211.367,400.749l7.966,24.972l22.117-2.719l-7.007-22.253H211.367z M274.187,370.38
	c0-1.129-0.873-2.048-1.987-2.09l-17.062-0.65l9.159,29.04h9.89V370.38z M267.376,419.814l-6.013-19.065H238.66l6.849,21.754
	L267.376,419.814z M199.269,448.71C199.269,448.71,199.269,448.71,199.269,448.71C199.269,448.71,199.269,448.71,199.269,448.71
	C199.269,448.71,199.269,448.71,199.269,448.71z M199.697,447.599c-0.004,0.016-0.008,0.032-0.012,0.048
	C199.688,447.631,199.693,447.615,199.697,447.599C199.697,447.598,199.697,447.599,199.697,447.599z M199.81,446.891
	c0.01-0.119,0.018-0.238,0.018-0.36C199.828,446.653,199.819,446.772,199.81,446.891z M280.118,456.13
	c-0.014-0.001-0.028-0.002-0.043-0.002C280.089,456.129,280.104,456.129,280.118,456.13z M282.137,457.704
	c-0.015,0.058-0.027,0.116-0.044,0.173c0.158,0.251,0.251,0.426,0.251,0.426S282.25,458.066,282.137,457.704z M281.771,455.771
	c0,0.007,0,0.013,0.001,0.02C281.772,455.784,281.772,455.778,281.771,455.771z M227.908,366.603l9.47,30.077h22.7l-9.211-29.202
	L227.908,366.603z M280.29,456.158c-0.003-0.001-0.006-0.002-0.009-0.003C280.284,456.156,280.287,456.158,280.29,456.158z
	 M281.841,456.467c0.001,0.008,0.003,0.016,0.004,0.024C281.844,456.483,281.842,456.475,281.841,456.467z M281.774,457.409
	c-0.008-0.011-0.016-0.022-0.024-0.033C281.758,457.387,281.766,457.398,281.774,457.409z M281.885,456.714
	c-0.002-0.008-0.003-0.016-0.005-0.024C281.882,456.697,281.883,456.706,281.885,456.714z M281.854,454.923
	c0.001-0.004,0.003-0.009,0.004-0.013C281.857,454.915,281.855,454.919,281.854,454.923z M282.032,457.339
	c0,0.001,0,0.001,0.001,0.002C282.032,457.341,282.032,457.34,282.032,457.339z M281.989,457.717
	c0.004,0.006,0.008,0.012,0.012,0.019C281.998,457.73,281.993,457.724,281.989,457.717z M280.661,456.315
	c-0.005-0.003-0.009-0.006-0.014-0.009C280.652,456.309,280.656,456.312,280.661,456.315z M281.015,456.568
	c-0.005-0.004-0.01-0.009-0.015-0.014C281.004,456.559,281.009,456.564,281.015,456.568z M281.636,457.227
	c-0.003-0.004-0.006-0.008-0.009-0.012C281.63,457.22,281.633,457.223,281.636,457.227z M280.489,456.228
	c-0.014-0.006-0.029-0.012-0.043-0.018C280.46,456.216,280.475,456.222,280.489,456.228z M280.849,456.438
	c-0.014-0.01-0.028-0.02-0.042-0.03C280.821,456.418,280.835,456.428,280.849,456.438z M281.5,457.062
	c-0.011-0.013-0.022-0.026-0.033-0.039C281.478,457.036,281.489,457.049,281.5,457.062z M281.149,456.689
	c0.013,0.013,0.026,0.025,0.04,0.038C281.176,456.714,281.163,456.702,281.149,456.689z M281.328,456.868
	c0.005,0.005,0.009,0.01,0.014,0.016C281.338,456.879,281.333,456.874,281.328,456.868z M281.916,454.738
	c0.002-0.005,0.004-0.011,0.006-0.016C281.92,454.727,281.918,454.733,281.916,454.738z M275.52,458.74
	c-0.015,0.018-0.029,0.036-0.044,0.055C275.491,458.776,275.505,458.758,275.52,458.74z M275.362,458.952
	c-0.009,0.014-0.019,0.027-0.028,0.041C275.343,458.979,275.353,458.966,275.362,458.952z M200.137,365.545l9.931,31.135h23.093
	l-9.521-30.24L200.137,365.545z M275.173,459.264c0.01-0.019,0.02-0.039,0.031-0.057
	C275.194,459.226,275.184,459.245,275.173,459.264z M191.53,448.711C191.53,448.711,191.53,448.711,191.53,448.711
	C191.53,448.711,191.53,448.711,191.53,448.711z M191.339,448.32c-0.001-0.002-0.002-0.004-0.003-0.007
	C191.337,448.316,191.339,448.319,191.339,448.32C191.34,448.321,191.339,448.321,191.339,448.32z M191.178,447.887
	c-0.001-0.002-0.002-0.004-0.002-0.007c0,0,0,0,0,0C191.176,447.882,191.177,447.884,191.178,447.887z M275.047,459.514
	c0.011-0.023,0.022-0.046,0.033-0.069C275.069,459.468,275.058,459.491,275.047,459.514z M176.872,455.636
	c-0.002-0.027-0.004-0.054-0.006-0.081C176.868,455.582,176.87,455.609,176.872,455.636z M274.427,461.506
	c-0.001,0.007-0.003,0.013-0.004,0.02C274.424,461.519,274.426,461.513,274.427,461.506z M274.494,461.201
	c-0.003,0.011-0.005,0.023-0.008,0.034C274.488,461.224,274.491,461.213,274.494,461.201z M274.566,460.904
	c-0.005,0.021-0.011,0.043-0.016,0.064C274.555,460.947,274.561,460.926,274.566,460.904z M274.376,461.767
	c-0.002,0.011-0.004,0.022-0.006,0.033C274.371,461.789,274.374,461.778,274.376,461.767z M274.838,460.019
	c-0.008,0.023-0.016,0.046-0.025,0.069C274.822,460.065,274.83,460.042,274.838,460.019z M274.938,459.76
	c0.002-0.005,0.004-0.01,0.007-0.015C274.943,459.75,274.94,459.755,274.938,459.76z M274.721,460.361
	c0.007-0.021,0.014-0.042,0.021-0.064C274.735,460.319,274.728,460.34,274.721,460.361z M274.635,460.651
	c0.002-0.006,0.003-0.012,0.005-0.019C274.638,460.638,274.636,460.644,274.635,460.651z M176.804,455.069
	c0.001,0.008,0.003,0.015,0.004,0.023C176.807,455.084,176.806,455.076,176.804,455.069z M165.937,360.734
	c-0.023,0.007-0.046,0.012-0.069,0.018C165.891,360.746,165.915,360.741,165.937,360.734z M166.487,360.489
	c-0.014,0.009-0.028,0.017-0.042,0.026C166.46,360.506,166.473,360.497,166.487,360.489z M166.692,360.347
	c0.008-0.006,0.016-0.012,0.023-0.018C166.708,360.335,166.7,360.341,166.692,360.347z M165.582,360.807
	c0.027-0.003,0.053-0.008,0.079-0.012C165.635,360.799,165.609,360.804,165.582,360.807z M149.876,353.773
	c-0.001,0.001-0.002,0.001-0.002,0.002C149.875,353.774,149.875,353.773,149.876,353.773z M172.049,364.475
	c-0.688-0.028-1.329,0.283-1.741,0.85c-0.412,0.567-0.515,1.273-0.284,1.936l10.258,29.418h25.564l-9.983-31.298L172.049,364.475z
	 M167.128,359.903c-0.003,0.005-0.007,0.009-0.01,0.014C167.121,359.912,167.125,359.908,167.128,359.903z M193.242,428.928
	l22.027-2.708l-8.125-25.471h-25.441l9.469,27.083C191.569,428.591,192.382,429.035,193.242,428.928z M142.23,353.595
	c-0.024-0.019-0.049-0.038-0.079-0.055C142.181,353.557,142.206,353.575,142.23,353.595z M141.516,353.354
	c-0.047-0.008-0.095-0.015-0.144-0.022C141.421,353.339,141.469,353.346,141.516,353.354z M141.733,353.396
	c-0.04-0.009-0.082-0.018-0.125-0.026C141.651,353.379,141.693,353.387,141.733,353.396z M141.109,353.296
	c0.057,0.007,0.115,0.015,0.17,0.022C141.223,353.31,141.166,353.303,141.109,353.296z M142.268,353.623
	c0.032,0.031,0.059,0.064,0.077,0.101C142.327,353.687,142.3,353.654,142.268,353.623z M190.971,446.531
	c0-0.124,0.009-0.245,0.019-0.366c0,0,0,0,0,0.001C190.978,446.286,190.971,446.408,190.971,446.531z M142.094,353.512
	c-0.03-0.014-0.06-0.028-0.094-0.04C142.034,353.484,142.064,353.498,142.094,353.512z M141.927,353.448
	c-0.035-0.011-0.071-0.022-0.11-0.031C141.856,353.426,141.892,353.437,141.927,353.448z M381.657,188.097
	c0.108-0.046,0.219-0.091,0.334-0.134C381.876,188.006,381.765,188.051,381.657,188.097z M384.524,187.362
	c-0.009-0.001-0.019-0.002-0.029-0.003C384.504,187.361,384.514,187.361,384.524,187.362z M384.59,187.369
	c-0.008-0.001-0.016-0.002-0.024-0.003C384.574,187.367,384.582,187.368,384.59,187.369z M384.643,187.375
	c-0.007-0.001-0.013-0.002-0.021-0.003C384.63,187.374,384.636,187.374,384.643,187.375z M384.679,187.38
	c-0.005-0.001-0.009-0.001-0.016-0.002C384.669,187.379,384.674,187.379,384.679,187.38z M384.234,187.344c-0.005,0-0.01,0-0.015,0
	C384.224,187.343,384.229,187.343,384.234,187.344z M384.688,187.381c0.005,0.001,0.008,0.001,0.008,0.001
	S384.693,187.382,384.688,187.381z M384.344,187.349c-0.009-0.001-0.018-0.001-0.027-0.001
	C384.326,187.348,384.336,187.348,384.344,187.349z M384.441,187.355c-0.01-0.001-0.02-0.001-0.03-0.002
	C384.421,187.354,384.432,187.355,384.441,187.355z M384.215,187.43c0.157-0.019,0.317-0.035,0.481-0.048
	C384.532,187.395,384.372,187.412,384.215,187.43z M380.547,188.125c0.012-0.006,0.025-0.012,0.037-0.018
	C380.572,188.113,380.56,188.119,380.547,188.125z M447.908,440.064L447.908,440.064c0,0,0.016-0.016,0.043-0.044
	C447.924,440.048,447.908,440.064,447.908,440.064z M381.53,187.731c-0.003,0.001-0.005,0.002-0.008,0.003
	C381.525,187.733,381.528,187.732,381.53,187.731z M381.281,187.817c0.01-0.004,0.021-0.007,0.031-0.011
	C381.301,187.81,381.291,187.813,381.281,187.817z M380.791,188.014c0.014-0.006,0.029-0.013,0.043-0.019
	C380.819,188.001,380.805,188.007,380.791,188.014z M383.756,187.496c0.1-0.017,0.204-0.031,0.308-0.045
	C383.96,187.465,383.857,187.48,383.756,187.496z M379.911,189.136c-0.226,0.181-0.423,0.362-0.594,0.536
	C379.489,189.498,379.686,189.317,379.911,189.136z M380.314,188.242c0.006-0.003,0.012-0.006,0.018-0.009
	C380.326,188.236,380.32,188.239,380.314,188.242z M381.077,187.894c-0.013,0.005-0.027,0.011-0.04,0.016
	C381.05,187.905,381.063,187.9,381.077,187.894z M356.281,451.598c0.008,0.017,0.016,0.034,0.023,0.051
	C356.297,451.632,356.289,451.615,356.281,451.598z M356.058,451.24c-0.018-0.021-0.038-0.039-0.057-0.059
	C356.02,451.2,356.04,451.219,356.058,451.24z M356.152,451.363c-0.014-0.021-0.029-0.04-0.044-0.06
	C356.122,451.323,356.137,451.342,356.152,451.363z M451.109,425.918c-0.125-0.063-0.25-0.12-0.376-0.175
	C450.859,425.797,450.984,425.855,451.109,425.918z M356.366,451.809c-0.005-0.013-0.009-0.026-0.014-0.039
	C356.356,451.783,356.361,451.796,356.366,451.809z M317.375,423.665c-0.034-0.003-0.067-0.004-0.101-0.006
	C317.308,423.661,317.342,423.662,317.375,423.665z M355.877,451.077c0.026,0.018,0.051,0.036,0.075,0.057
	C355.929,451.113,355.903,451.095,355.877,451.077z M355.703,450.978c0.046,0.019,0.089,0.042,0.131,0.068
	C355.793,451.02,355.749,450.997,355.703,450.978z M356.2,451.442c0.011,0.019,0.023,0.038,0.033,0.057
	C356.223,451.48,356.211,451.461,356.2,451.442z M449.779,425.415c-0.054-0.014-0.108-0.027-0.161-0.04
	C449.672,425.388,449.725,425.401,449.779,425.415z M449.308,425.309c0.023,0.004,0.046,0.008,0.07,0.013
	C449.354,425.317,449.331,425.313,449.308,425.309z M450.182,425.535c-0.067-0.022-0.134-0.043-0.201-0.063
	C450.048,425.492,450.115,425.513,450.182,425.535z M356.417,451.977c-0.002-0.008-0.004-0.015-0.006-0.023
	C356.413,451.962,356.415,451.97,356.417,451.977z M450.596,425.688c-0.08-0.032-0.16-0.064-0.24-0.093
	C450.436,425.624,450.516,425.655,450.596,425.688z M362.784,458.763L362.784,458.763c0,0,1.067-0.991,2.591,0l0,0
	C363.851,457.773,362.784,458.763,362.784,458.763z M392.601,463.073l-13.782,0.005l3.074-0.001L392.601,463.073z M430.326,437.679
	c-0.006,0.008-0.012,0.015-0.017,0.022C430.314,437.694,430.32,437.686,430.326,437.679z M372.824,182.535
	c-0.027-0.02-0.054-0.041-0.081-0.061C372.77,182.493,372.797,182.514,372.824,182.535z M374.671,184.171
	c-0.022-0.022-0.043-0.045-0.065-0.067C374.627,184.126,374.649,184.148,374.671,184.171z M376.132,185.798
	c0-0.001-0.001-0.001-0.001-0.002C376.131,185.797,376.131,185.797,376.132,185.798z M382.806,187.429
	c0.005-0.001,0.01-0.002,0.015-0.002C382.816,187.427,382.811,187.428,382.806,187.429z M374.996,184.508
	c-0.028-0.03-0.056-0.06-0.085-0.089C374.94,184.449,374.968,184.478,374.996,184.508z M373.545,183.114
	c-0.012-0.01-0.024-0.02-0.036-0.03C373.521,183.094,373.533,183.104,373.545,183.114z M375.282,184.816
	c-0.012-0.013-0.024-0.026-0.036-0.039C375.258,184.79,375.27,184.803,375.282,184.816z M375.831,185.44
	c0.017,0.02,0.034,0.04,0.051,0.059C375.865,185.479,375.848,185.459,375.831,185.44z M375.555,185.121
	c0.021,0.024,0.042,0.048,0.064,0.073C375.597,185.169,375.576,185.145,375.555,185.121z M374.301,183.804
	c-0.028-0.027-0.057-0.054-0.086-0.081C374.244,183.75,374.272,183.777,374.301,183.804z M371.619,181.769
	c-0.009-0.008-0.017-0.015-0.025-0.022C371.601,181.753,371.61,181.761,371.619,181.769z M373.203,182.83
	c-0.034-0.028-0.069-0.055-0.103-0.082C373.135,182.775,373.169,182.802,373.203,182.83z M371.569,181.725
	c-0.014-0.012-0.023-0.02-0.023-0.02S371.555,181.713,371.569,181.725z M371.718,181.857c0.125,0.111,0.311,0.28,0.543,0.494
	C372.03,182.137,371.843,181.968,371.718,181.857z M371.648,181.795c0.014,0.012,0.028,0.024,0.044,0.039
	C371.676,181.819,371.661,181.806,371.648,181.795z M371.915,181.917c0.035,0.021,0.069,0.043,0.104,0.064
	C371.984,181.96,371.95,181.938,371.915,181.917z M281.77,455.568c0-0.007,0-0.013,0-0.02
	C281.77,455.554,281.77,455.561,281.77,455.568z M372.39,182.223c-0.028-0.019-0.057-0.038-0.085-0.057
	C372.334,182.185,372.362,182.203,372.39,182.223z M373.971,183.494c-0.032-0.03-0.064-0.059-0.097-0.089
	C373.906,183.434,373.938,183.464,373.971,183.494z M383.149,187.616c-0.084,0.019-0.167,0.04-0.249,0.061
	C382.981,187.656,383.064,187.636,383.149,187.616z M383.537,187.351c0.004,0,0.007,0,0.011-0.001
	C383.544,187.351,383.54,187.351,383.537,187.351z M383.585,187.527c-0.09,0.017-0.18,0.033-0.268,0.052
	C383.405,187.56,383.495,187.543,383.585,187.527z M382.105,187.922c0.081-0.029,0.164-0.059,0.248-0.086
	C382.269,187.863,382.187,187.892,382.105,187.922z M382.499,187.791c0.079-0.024,0.159-0.048,0.241-0.071
	C382.657,187.742,382.578,187.766,382.499,187.791z M383.019,187.399c-0.008,0.001-0.015,0.002-0.023,0.003
	C383.004,187.401,383.011,187.4,383.019,187.399z M383.386,187.362c-0.008,0.001-0.015,0.001-0.023,0.002
	C383.371,187.363,383.378,187.362,383.386,187.362z M383.182,187.38c0.009-0.001,0.018-0.002,0.026-0.003
	C383.2,187.378,383.191,187.379,383.182,187.38z M376.364,186.084c0.01,0.012,0.019,0.024,0.029,0.036
	C376.383,186.108,376.374,186.096,376.364,186.084z M380.195,188.921c0.059-0.043,0.119-0.085,0.182-0.127
	C380.314,188.836,380.254,188.878,380.195,188.921z M380.135,188.964c-0.068,0.05-0.134,0.101-0.198,0.152
	C380.001,189.065,380.066,189.015,380.135,188.964z M317.629,423.699c-0.028-0.005-0.056-0.008-0.084-0.012
	C317.573,423.691,317.601,423.694,317.629,423.699z M380.455,188.741c0.059-0.039,0.12-0.078,0.183-0.116
	C380.575,188.664,380.515,188.702,380.455,188.741z M381.016,188.406c0.073-0.04,0.149-0.078,0.226-0.117
	C381.165,188.328,381.089,188.367,381.016,188.406z M381.321,188.25c0.106-0.051,0.214-0.101,0.327-0.15
	C381.536,188.149,381.427,188.199,381.321,188.25z M380.922,188.458c-0.066,0.037-0.132,0.074-0.195,0.112
	C380.791,188.533,380.856,188.495,380.922,188.458z"></path>
<path id="color_x5F_3" fill="#E84393" d="M102.115,411.024l-12.678-27.948h-2.305l-8.131,64.54H71.51l-1.281-88.454h30.157
	l14.983,53.304l-11.274,28.604l-6.201-3.25L102.115,411.024z M87.991,460.475c-0.935-0.494-3.481-0.13-6.053-0.779
	c-2.572-0.649-3.741-3.897-3.793-7.455h-6.234v9.975h2.221v-4.403c0,0,3.468,4.13,5.104,4.403c1.637,0.273,9.508,0,9.508,0
	S88.926,460.969,87.991,460.475z M103.616,453.21c-2.253-1.4-2.38-4.849-1.348-8.255l-5.94-1.894l-3.03,9.504l2.116,0.675
	l1.338-4.195c0,0,2.049,4.989,3.526,5.746c1.476,0.757,9.058,2.888,9.058,2.888s0.552-1.133-0.189-1.887
	C108.405,455.037,105.869,454.61,103.616,453.21z"></path>
<path id="color_x5F_2" fill="#FBC02D" d="M69.637,359.161c0,0,4.25-19.662,3.837-27.1c-0.243-4.369,0.118-10.644-0.42-17.655
	c-1.132-14.765,5.409-23.832,5.409-23.832c2.006-1.793,3.875-2.828,3.875-2.828l10.844,3.275c0,0,1.612,2.232,2.236,4.629
	l12.261,19.249l-9.329,9.143l-1.685-2.104c-1.196,3.234-0.448,5.736-0.52,9.663c-0.138,7.575,4.161,27.559,4.161,27.559H69.637z"></path>
<path id="color_x5F_1" fill="#0984E3" d="M56.506,278.727c3.54-5.753,0.59-15.931,6.638-23.454
	c6.048-7.523,15.193,3.851,15.193,3.851s4.494-2.081,9.844-2.155c5.35-0.074,8.909,3.204,10.162,6.449
	c0.861,2.232,0.354,6.912,0.354,6.912l-0.115-1.391c0,0,0.038,1.306-1.732,3.15c-1.77,1.844-8.669,1.991-8.669,1.991
	s0.335-1.401-1.141-1.844c-1.475-0.443-2.581,0.719-1.696,2.904c0.885,2.185,1.623,1.964,1.918,3.07
	c0.295,1.106-4.495,5.14-4.495,5.14s-1.553-2.706-4.724-4.55c-3.171-1.844-4.278-7.892-3.761-11.137
	c0.516-3.245,1.847-6.048,1.847-6.048s-4.724-1.038-6.789,5.824c-2.065,6.862,0.295,9.812-5.753,14.68
	C57.538,286.988,45,286.398,45,286.398S52.966,284.48,56.506,278.727z"></path>
</svg>